<?xml version="1.0" encoding="UTF-8"?>
<!DOCTYPE svg PUBLIC "-//W3C//DTD SVG 1.1//EN" "http://www.w3.org/Graphics/SVG/1.1/DTD/svg11.dtd">
<!-- Creator: CorelDRAW 2017 -->
<svg xmlns="http://www.w3.org/2000/svg" xml:space="preserve" width="162.665mm" height="38.2081mm" version="1.1" style="shape-rendering:geometricPrecision; text-rendering:geometricPrecision; image-rendering:optimizeQuality; fill-rule:evenodd; clip-rule:evenodd"
viewBox="0 0 16780 3941"
 xmlns:xlink="http://www.w3.org/1999/xlink">
 <defs>
  <style type="text/css">
   <![CDATA[
    .fil4 {fill:#FEFEFE}
    .fil6 {fill:#FEFEFE}
    .fil3 {fill:#32376D}
    .fil2 {fill:#366744}
    .fil1 {fill:#32376D;fill-rule:nonzero}
    .fil0 {fill:#366744;fill-rule:nonzero}
    .fil5 {fill:#0C1248;fill-opacity:0.211765}
   ]]>
  </style>
 </defs>
 <g id="Layer_x0020_1">
  <metadata id="CorelCorpID_0Corel-Layer"/>
  <g id="_2890819996544">
   <g>
    <path class="fil0" d="M6263 687l0 947c0,108 -24,203 -72,284 -49,82 -118,144 -210,187 -92,43 -200,65 -325,65 -188,0 -334,-48 -438,-145 -104,-96 -156,-228 -156,-396l0 -943 309 0 0 896c0,113 23,196 68,248 45,53 121,79 225,79 101,0 175,-27 221,-80 46,-53 69,-136 69,-250l0 -894 309 0zm958 324c41,0 76,3 103,9l-23 286c-25,-6 -55,-10 -90,-10 -97,0 -173,25 -228,75 -54,50 -82,120 -82,210l0 569 -305 0 0 -1119 231 0 45 189 15 0c35,-63 82,-113 141,-152 59,-38 123,-57 192,-57zm930 0c132,0 235,52 310,155 75,103 112,244 112,424 0,185 -38,328 -115,429 -77,101 -182,152 -315,152 -132,0 -235,-48 -310,-143l-21 0 -51 123 -233 0 0 -1558 305 0 0 363c0,46 -4,120 -12,221l12 0c71,-111 177,-166 318,-166zm-98 244c-75,0 -131,23 -165,69 -35,46 -53,123 -54,230l0 33c0,120 18,206 54,258 36,52 92,78 170,78 63,0 113,-29 150,-86 37,-58 55,-142 55,-252 0,-110 -18,-192 -56,-247 -37,-55 -88,-83 -153,-83zm1483 896l-59 -152 -8 0c-52,65 -105,110 -159,135 -54,25 -125,38 -213,38 -108,0 -192,-31 -254,-92 -62,-62 -93,-149 -93,-262 0,-119 42,-207 125,-263 83,-56 208,-88 376,-94l194 -6 0 -49c0,-113 -58,-170 -174,-170 -89,0 -194,27 -315,81l-101 -206c129,-67 272,-101 428,-101 150,0 265,33 345,98 80,65 120,165 120,298l0 745 -213 0zm-90 -519l-118 4c-89,3 -155,18 -199,48 -43,29 -65,74 -65,134 0,86 50,129 148,129 71,0 127,-21 169,-61 42,-41 64,-95 64,-162l0 -92zm1650 519l-305 0 0 -654c0,-81 -14,-141 -43,-182 -29,-40 -74,-60 -137,-60 -85,0 -147,28 -185,85 -38,57 -57,152 -57,284l0 526 -305 0 0 -1119 233 0 41 143 17 0c34,-54 81,-95 141,-123 59,-28 127,-41 203,-41 130,0 229,35 296,106 67,70 101,172 101,305l0 729zm1177 0l-305 0 0 -1464 839 0 0 254 -534 0 0 377 497 0 0 254 -497 0 0 578zm1101 0l-305 0 0 -1558 305 0 0 1558zm784 -922c-65,0 -115,20 -152,62 -37,41 -58,99 -63,174l429 0c-1,-75 -21,-133 -59,-174 -38,-41 -90,-62 -154,-62zm43 943c-180,0 -321,-50 -423,-149 -101,-99 -152,-240 -152,-422 0,-188 47,-332 140,-435 94,-102 223,-154 389,-154 158,0 281,45 369,135 88,90 132,214 132,373l0 148 -722 0c3,87 29,155 77,204 48,49 116,73 203,73 67,0 131,-7 191,-21 60,-14 123,-36 188,-67l0 236c-54,27 -111,47 -172,60 -60,13 -135,19 -222,19zm1168 -943c-65,0 -115,20 -152,62 -37,41 -58,99 -63,174l429 0c-1,-75 -21,-133 -59,-174 -38,-41 -90,-62 -154,-62zm43 943c-180,0 -321,-50 -423,-149 -101,-99 -152,-240 -152,-422 0,-188 47,-332 140,-435 94,-102 223,-154 389,-154 158,0 281,45 369,135 88,90 132,214 132,373l0 148 -722 0c3,87 29,155 77,204 48,49 116,73 203,73 67,0 131,-7 191,-21 60,-14 123,-36 188,-67l0 236c-54,27 -111,47 -172,60 -60,13 -135,19 -222,19zm1176 -244c54,0 118,-12 192,-35l0 228c-76,34 -169,51 -280,51 -122,0 -211,-31 -267,-93 -56,-62 -84,-154 -84,-278l0 -540 -146 0 0 -129 168 -102 88 -236 195 0 0 238 313 0 0 230 -313 0 0 539c0,43 12,76 37,96 24,21 56,31 96,31z"/>
    <path class="fil1" d="M5467 3164l-40 -131 -201 0 -40 131 -126 0 194 -551 143 0 195 551 -126 0zm-68 -228c-37,-118 -58,-185 -62,-201 -5,-16 -8,-28 -10,-37 -8,32 -32,111 -71,238l143 0zm551 228l-15 -54 -6 0c-12,20 -30,35 -52,45 -23,11 -48,16 -77,16 -49,0 -87,-13 -112,-40 -25,-26 -38,-64 -38,-114l0 -274 115 0 0 245c0,30 5,53 16,68 11,15 28,23 51,23 32,0 55,-11 70,-32 14,-21 21,-57 21,-106l0 -197 115 0 0 420 -88 0zm386 -84c20,0 44,-4 72,-13l0 85c-29,13 -64,19 -105,19 -46,0 -79,-12 -100,-35 -21,-23 -31,-58 -31,-104l0 -202 -55 0 0 -49 63 -38 33 -89 73 0 0 89 118 0 0 86 -118 0 0 202c0,16 5,28 14,36 9,8 21,12 36,12zm249 -127c0,42 7,73 20,94 14,21 36,32 67,32 31,0 53,-11 66,-32 13,-21 20,-53 20,-94 0,-42 -7,-73 -20,-93 -13,-21 -36,-31 -67,-31 -31,0 -53,10 -66,31 -14,21 -20,52 -20,94zm291 0c0,68 -18,122 -54,160 -36,39 -86,58 -151,58 -40,0 -76,-9 -107,-27 -31,-18 -54,-43 -71,-76 -17,-33 -25,-72 -25,-116 0,-69 18,-122 54,-160 36,-38 86,-57 151,-57 40,0 76,9 107,26 31,18 54,43 71,75 17,33 25,71 25,115zm472 210l-115 0 0 -245c0,-30 -5,-53 -15,-68 -10,-15 -26,-23 -48,-23 -29,0 -51,11 -64,32 -13,22 -20,57 -20,106l0 197 -115 0 0 -420 88 0 15 54 6 0c11,-19 28,-34 49,-45 21,-11 46,-16 73,-16 63,0 106,21 128,62l10 0c11,-19 28,-35 50,-45 22,-11 47,-16 74,-16 48,0 84,12 108,37 25,24 37,63 37,117l0 274 -115 0 0 -245c0,-30 -5,-53 -15,-68 -10,-15 -26,-23 -48,-23 -28,0 -49,10 -63,30 -14,20 -21,52 -21,95l0 211zm471 -211c0,42 7,73 20,94 14,21 36,32 67,32 31,0 53,-11 66,-32 13,-21 20,-53 20,-94 0,-42 -7,-73 -20,-93 -13,-21 -36,-31 -67,-31 -31,0 -53,10 -66,31 -14,21 -20,52 -20,94zm291 0c0,68 -18,122 -54,160 -36,39 -86,58 -151,58 -40,0 -76,-9 -107,-27 -31,-18 -54,-43 -71,-76 -17,-33 -25,-72 -25,-116 0,-69 18,-122 54,-160 36,-38 86,-57 151,-57 40,0 76,9 107,26 31,18 54,43 71,75 17,33 25,71 25,115zm272 127c20,0 44,-4 72,-13l0 85c-29,13 -64,19 -105,19 -46,0 -79,-12 -100,-35 -21,-23 -31,-58 -31,-104l0 -202 -55 0 0 -49 63 -38 33 -89 73 0 0 89 118 0 0 86 -118 0 0 202c0,16 5,28 14,36 9,8 21,12 36,12zm152 -445c0,-37 21,-56 62,-56 42,0 62,19 62,56 0,18 -5,32 -16,42 -10,10 -26,15 -47,15 -42,0 -62,-19 -62,-56zm120 528l-115 0 0 -420 115 0 0 420zm221 0l-160 -420 120 0 81 239c9,30 15,59 17,86l2 0c1,-24 7,-53 17,-86l81 -239 120 0 -160 420 -118 0zm512 -346c-24,0 -43,8 -57,23 -14,15 -22,37 -24,65l161 0c-1,-28 -8,-50 -22,-65 -14,-15 -34,-23 -58,-23zm16 354c-68,0 -121,-19 -159,-56 -38,-37 -57,-90 -57,-158 0,-70 18,-125 53,-163 35,-38 84,-58 146,-58 59,0 106,17 139,51 33,34 50,80 50,140l0 55 -271 0c1,33 11,58 29,76 18,18 44,27 76,27 25,0 49,-3 72,-8 22,-5 46,-14 71,-25l0 89c-20,10 -42,18 -64,22 -23,5 -51,7 -83,7zm700 -435c16,0 29,1 39,3l-9 107c-9,-2 -21,-4 -34,-4 -37,0 -65,9 -86,28 -20,19 -31,45 -31,79l0 213 -115 0 0 -420 87 0 17 71 6 0c13,-23 31,-42 53,-57 22,-14 46,-22 72,-22zm290 81c-24,0 -43,8 -57,23 -14,15 -22,37 -24,65l161 0c-1,-28 -8,-50 -22,-65 -14,-15 -34,-23 -58,-23zm16 354c-68,0 -121,-19 -159,-56 -38,-37 -57,-90 -57,-158 0,-70 18,-125 53,-163 35,-38 84,-58 146,-58 59,0 106,17 139,51 33,34 50,80 50,140l0 55 -271 0c1,33 11,58 29,76 18,18 44,27 76,27 25,0 49,-3 72,-8 22,-5 46,-14 71,-25l0 89c-20,10 -42,18 -64,22 -23,5 -51,7 -83,7zm653 -8l-115 0 0 -245c0,-30 -5,-53 -16,-68 -11,-15 -28,-23 -52,-23 -32,0 -55,11 -69,32 -14,21 -21,57 -21,106l0 197 -115 0 0 -420 88 0 15 54 6 0c13,-20 30,-36 53,-46 22,-10 48,-16 76,-16 49,0 86,13 111,40 25,26 38,64 38,114l0 274zm295 -84c20,0 44,-4 72,-13l0 85c-29,13 -64,19 -105,19 -46,0 -79,-12 -100,-35 -21,-23 -31,-58 -31,-104l0 -202 -55 0 0 -49 63 -38 33 -89 73 0 0 89 118 0 0 86 -118 0 0 202c0,16 5,28 14,36 9,8 21,12 36,12zm424 84l-22 -57 -3 0c-19,24 -39,41 -60,51 -20,9 -47,14 -80,14 -40,0 -72,-12 -95,-35 -23,-23 -35,-56 -35,-98 0,-45 16,-78 47,-99 31,-21 78,-33 141,-35l73 -2 0 -18c0,-43 -22,-64 -66,-64 -34,0 -73,10 -118,30l-38 -77c48,-25 102,-38 161,-38 56,0 100,12 130,37 30,24 45,62 45,112l0 280 -80 0zm-34 -194l-44 2c-33,1 -58,7 -75,18 -16,11 -24,28 -24,50 0,32 19,48 56,48 27,0 48,-8 64,-23 16,-15 24,-36 24,-61l0 -35zm347 194l-115 0 0 -584 115 0 0 584zm614 -125c0,43 -15,76 -45,98 -30,23 -75,34 -134,34 -31,0 -57,-2 -78,-6 -22,-4 -42,-10 -61,-18l0 -95c21,10 45,18 72,25 27,7 50,10 71,10 42,0 63,-12 63,-36 0,-9 -3,-16 -8,-22 -6,-6 -15,-12 -29,-19 -14,-7 -32,-15 -54,-25 -32,-13 -56,-26 -71,-38 -15,-12 -26,-25 -33,-40 -7,-15 -10,-33 -10,-55 0,-37 14,-66 43,-86 29,-20 70,-30 123,-30 51,0 100,11 148,33l-35 82c-21,-9 -41,-16 -59,-22 -18,-6 -37,-9 -56,-9 -34,0 -51,9 -51,27 0,10 6,19 16,27 11,8 35,19 72,33 33,13 57,26 72,37 15,12 27,25 34,40 7,15 11,33 11,54zm85 -404c0,-37 21,-56 62,-56 42,0 62,19 62,56 0,18 -5,32 -16,42 -10,10 -26,15 -47,15 -42,0 -62,-19 -62,-56zm120 528l-115 0 0 -420 115 0 0 420zm497 0l-115 0 0 -245c0,-30 -5,-53 -15,-68 -10,-15 -26,-23 -48,-23 -29,0 -51,11 -64,32 -13,22 -20,57 -20,106l0 197 -115 0 0 -420 88 0 15 54 6 0c11,-19 28,-34 49,-45 21,-11 46,-16 73,-16 63,0 106,21 128,62l10 0c11,-19 28,-35 50,-45 22,-11 47,-16 74,-16 48,0 84,12 108,37 25,24 37,63 37,117l0 274 -115 0 0 -245c0,-30 -5,-53 -15,-68 -10,-15 -26,-23 -48,-23 -28,0 -49,10 -63,30 -14,20 -21,52 -21,95l0 211zm611 8c-49,0 -88,-18 -116,-54l-6 0c4,35 6,55 6,61l0 170 -115 0 0 -604 93 0 16 55 5 0c27,-42 67,-62 119,-62 50,0 88,19 117,57 28,38 42,91 42,160 0,45 -7,84 -20,117 -13,33 -32,58 -56,75 -24,17 -53,26 -86,26zm-34 -344c-28,0 -49,9 -62,26 -13,17 -20,46 -20,86l0 12c0,45 7,77 20,97 13,19 35,29 64,29 52,0 77,-42 77,-127 0,-41 -6,-72 -19,-93 -13,-21 -32,-31 -60,-31zm405 336l-115 0 0 -584 115 0 0 584zm116 -528c0,-37 21,-56 62,-56 42,0 62,19 62,56 0,18 -5,32 -16,42 -10,10 -26,15 -47,15 -42,0 -62,-19 -62,-56zm120 528l-115 0 0 -420 115 0 0 420zm353 -334l-99 0 0 334 -115 0 0 -334 -63 0 0 -55 63 -31 0 -31c0,-48 12,-83 35,-105 24,-22 61,-33 113,-33 40,0 75,6 106,18l-29 84c-23,-7 -44,-11 -64,-11 -16,0 -28,5 -35,14 -7,10 -11,22 -11,37l0 26 99 0 0 86zm61 -195c0,-37 21,-56 62,-56 42,0 62,19 62,56 0,18 -5,32 -16,42 -10,10 -26,15 -47,15 -42,0 -62,-19 -62,-56zm120 528l-115 0 0 -420 115 0 0 420zm295 -346c-24,0 -43,8 -57,23 -14,15 -22,37 -24,65l161 0c-1,-28 -8,-50 -22,-65 -14,-15 -34,-23 -58,-23zm16 354c-68,0 -121,-19 -159,-56 -38,-37 -57,-90 -57,-158 0,-70 18,-125 53,-163 35,-38 84,-58 146,-58 59,0 106,17 139,51 33,34 50,80 50,140l0 55 -271 0c1,33 11,58 29,76 18,18 44,27 76,27 25,0 49,-3 72,-8 22,-5 46,-14 71,-25l0 89c-20,10 -42,18 -64,22 -23,5 -51,7 -83,7zm398 0c-49,0 -88,-19 -116,-57 -28,-38 -42,-91 -42,-159 0,-69 14,-122 43,-161 29,-38 68,-58 119,-58 53,0 93,21 121,62l4 0c-6,-31 -9,-59 -9,-84l0 -135 115 0 0 584 -88 0 -22 -54 -5 0c-26,41 -66,62 -119,62zm40 -91c29,0 51,-8 65,-25 14,-17 21,-46 22,-87l0 -12c0,-45 -7,-77 -21,-97 -14,-19 -36,-29 -68,-29 -26,0 -45,11 -60,32 -14,22 -21,53 -21,94 0,41 7,72 21,93 14,21 35,31 61,31zm298 30c0,-21 6,-37 17,-48 11,-11 28,-16 49,-16 21,0 37,6 48,17 11,11 17,27 17,47 0,20 -6,35 -17,47 -11,11 -27,17 -48,17 -21,0 -37,-6 -49,-17 -12,-11 -17,-27 -17,-47zm220 0c0,-21 6,-37 17,-48 11,-11 28,-16 49,-16 21,0 37,6 48,17 11,11 17,27 17,47 0,20 -6,35 -17,47 -11,11 -27,17 -48,17 -21,0 -37,-6 -49,-17 -12,-11 -17,-27 -17,-47zm220 0c0,-21 6,-37 17,-48 11,-11 28,-16 49,-16 21,0 37,6 48,17 11,11 17,27 17,47 0,20 -6,35 -17,47 -11,11 -27,17 -48,17 -21,0 -37,-6 -49,-17 -12,-11 -17,-27 -17,-47z"/>
   </g>
   <polygon class="fil2" points="4437,220 4566,220 4566,3721 4437,3721 "/>
   <g>
    <path class="fil3" d="M270 0l3402 0c148,0 270,121 270,270l0 3402c0,148 -121,270 -270,270l-3402 0c-148,0 -270,-121 -270,-270l0 -3402c0,-148 121,-270 270,-270z"/>
    <path class="fil4" d="M2772 3188c-135,0 -127,-55 -127,-177l263 0c0,126 14,177 -136,177zm-1273 -177l263 0c-14,126 14,181 -137,177 -143,-4 -114,-52 -126,-177zm843 -263l81 4 -2 167 -82 2 3 -173zm-178 3l82 -2 -3 173 -81 -4 3 -167zm-173 -2l78 0 -4 173 -79 0 5 -173zm-96 169c-145,12 -418,34 -511,-53 -87,-81 -147,-313 -45,-412 173,-169 325,30 385,91 134,134 192,114 171,375zm620 -137c0,-107 103,-166 161,-224 58,-58 118,-161 224,-161 246,0 268,200 178,400 -80,177 -339,126 -559,126l-4 -141zm-503 -122c-80,0 -253,-208 -302,-258l993 -4c-36,64 -88,102 -140,155 -147,150 -126,107 -551,107zm-281 -358c56,-233 381,-222 420,4l-420 -4zm1204 -82l182 -1c-19,92 -66,99 -171,80l-12 -80zm-1459 0l-16 83c-112,9 -151,21 -178,-83l194 0zm-166 -111c-28,22 -85,28 -106,83 -51,134 100,-13 -201,288 -68,68 -238,309 -378,185 -156,-137 120,-334 184,-397 83,-83 248,-275 338,-321 45,72 82,125 163,162zm266 197c-43,-58 10,-228 23,-316 21,-144 23,-210 176,-210l852 0c203,0 228,343 222,526l-602 0c-49,-149 -139,-281 -338,-260 -274,28 -207,251 -334,260zm-91 -181c-584,-254 -568,-1168 69,-1432 532,-220 1157,208 1083,832l-27 167 -96 -3c44,-154 75,-249 12,-457 -133,-445 -621,-633 -1005,-426 -375,202 -496,669 -231,1046 146,208 240,114 195,272zm-404 -268c-100,159 -636,511 -588,755 45,227 286,211 424,73 66,-66 277,-324 364,-315 -50,142 -131,99 -64,355 61,236 165,208 196,293 0,175 32,259 217,260 185,1 222,-80 222,-259l704 -6c-1,170 40,264 216,265 191,1 222,-76 222,-260 34,-87 130,-53 188,-260 59,-209 44,-232 -52,-375 28,-43 131,-127 58,-215 -49,-57 -182,-34 -271,-34 -20,-207 -21,-399 -224,-435 73,-343 37,-586 -173,-840 -146,-178 -422,-349 -781,-304 -591,74 -946,697 -658,1303z"/>
    <path class="fil2" d="M729 2495c30,0 54,24 54,54 0,30 -24,54 -54,54 -30,0 -54,-24 -54,-54 0,-30 24,-54 54,-54z"/>
    <path class="fil5" d="M1958 782c-335,-73 685,212 314,903l168 2c176,-469 -147,-832 -482,-906z"/>
    <g>
     <path class="fil2" d="M1546 2630c30,0 54,24 54,54 0,30 -24,54 -54,54 -30,0 -54,-24 -54,-54 0,-30 24,-54 54,-54z"/>
     <path class="fil6" d="M1546 2539c80,0 146,65 146,146 0,80 -65,146 -146,146 -80,0 -146,-65 -146,-146 0,-80 65,-146 146,-146zm0 83c35,0 63,28 63,63 0,35 -28,63 -63,63 -35,0 -63,-28 -63,-63 0,-35 28,-63 63,-63z"/>
    </g>
    <g>
     <path class="fil2" d="M2866 2630c30,0 54,24 54,54 0,30 -24,54 -54,54 -30,0 -54,-24 -54,-54 0,-30 24,-54 54,-54z"/>
     <path class="fil6" d="M2866 2539c80,0 146,65 146,146 0,80 -65,146 -146,146 -80,0 -146,-65 -146,-146 0,-80 65,-146 146,-146zm0 83c35,0 63,28 63,63 0,35 -28,63 -63,63 -35,0 -63,-28 -63,-63 0,-35 28,-63 63,-63z"/>
    </g>
   </g>
  </g>
 </g>
</svg>
